<svg id="Layer_1" xmlns="http://www.w3.org/2000/svg" xmlns:xlink="http://www.w3.org/1999/xlink" viewBox="0 0 440.8 284.8"><style>.st0{clip-path:url(#SVGID_2_);fill:url(#SVGID_3_);} .st1{clip-path:url(#SVGID_5_);fill:url(#SVGID_6_);} .st2{clip-path:url(#SVGID_8_);fill:url(#SVGID_9_);} .st3{fill:#FFFFFF;}</style><defs><path id="SVGID_1_" d="M201.9 154.9l.9.5 237.9 129.3-153.5-167.9L180.5 0z"/></defs><clipPath id="SVGID_2_"><use xlink:href="#SVGID_1_" overflow="visible"/></clipPath><linearGradient id="SVGID_3_" gradientUnits="userSpaceOnUse" y1="284.81" x2="1" y2="284.81" gradientTransform="matrix(260.23 0 0 -260.23 180.47 74258.46)"><stop offset="0" stop-color="#A0AEAF"/><stop offset=".158" stop-color="#A0AEAF"/><stop offset=".375" stop-color="#95A5AA"/><stop offset=".757" stop-color="#778C9E"/><stop offset=".842" stop-color="#70869B"/><stop offset="1" stop-color="#70869B"/></linearGradient><path class="st0" d="M180.5 0h260.2v284.7H180.5z"/><g><defs><path id="SVGID_4_" d="M93 95.7l108.9 59.2L180.5 0z"/></defs><clipPath id="SVGID_5_"><use xlink:href="#SVGID_4_" overflow="visible"/></clipPath><linearGradient id="SVGID_6_" gradientUnits="userSpaceOnUse" y1="284.999" x2="1" y2="284.999" gradientTransform="scale(126.63) rotate(-60 248.1 -142.91)"><stop offset="0" stop-color="#F9E743"/><stop offset=".143" stop-color="#F9E743"/><stop offset=".175" stop-color="#F8E541"/><stop offset=".816" stop-color="#EDB824"/><stop offset="1" stop-color="#EDB824"/></linearGradient><path class="st1" d="M25.9 116.2l94.3-163.3 148.7 85.8L174.6 202z"/></g><g><defs><path id="SVGID_7_" d="M0 197.4l440.7 87.3-237.9-129.3-.8.4-.1-.9L93 95.7z"/></defs><clipPath id="SVGID_8_"><use xlink:href="#SVGID_7_" overflow="visible"/></clipPath><linearGradient id="SVGID_9_" gradientUnits="userSpaceOnUse" y1="284.634" x2="1" y2="284.634" gradientTransform="scale(144.8) rotate(120 -81.69 -141.28)"><stop offset="0" stop-color="#D7FF70"/><stop offset=".055" stop-color="#D1FF63"/><stop offset=".196" stop-color="#C5FF47"/><stop offset=".348" stop-color="#BCFF32"/><stop offset=".516" stop-color="#B5FF23"/><stop offset=".712" stop-color="#B1FF1A"/><stop offset="1" stop-color="#B0FF17"/></linearGradient><path class="st2" d="M522.5 143l-192 332.5-412.3-238 192-332.6z"/></g><path class="st3" d="M202 155.1l.5.3-.5.2v-.5zM180.6 0h-.3l-5.1 5.6 19.1 138.3-97.2-52.8-8.4 9.1L189.4 155 67.2 210.9l20.2 4 109.8-50.2 10.2 74 12.5 2.5-10.4-75.2 211.8 115 19.4 3.8.1-.2-12.2-13.3-212.3-115.4 75.3-34.5-8.5-9.3-76.3 34.9L187.6 7.6l-7-7.6z"/></svg>