<svg id="Layer_1" xmlns="http://www.w3.org/2000/svg" xmlns:xlink="http://www.w3.org/1999/xlink" viewBox="0 0 516.1 401.4"><style>.st0{clip-path:url(#SVGID_2_);fill:url(#SVGID_3_);} .st1{clip-path:url(#SVGID_5_);fill:url(#SVGID_6_);} .st2{clip-path:url(#SVGID_8_);fill:url(#SVGID_9_);} .st3{clip-path:url(#SVGID_11_);fill:#FFFFFF;}</style><defs><path id="SVGID_1_" d="M277.2 154.9l.9.5L516 284.7 362.5 116.8 255.8 0z"/></defs><clipPath id="SVGID_2_"><use xlink:href="#SVGID_1_" overflow="visible"/></clipPath><linearGradient id="SVGID_3_" gradientUnits="userSpaceOnUse" y1="401.357" x2="1" y2="401.357" gradientTransform="matrix(260.23 0 0 -260.23 255.79 104587.48)"><stop offset="0" stop-color="#A0AEAF"/><stop offset=".158" stop-color="#A0AEAF"/><stop offset=".375" stop-color="#95A5AA"/><stop offset=".757" stop-color="#778C9E"/><stop offset=".842" stop-color="#70869B"/><stop offset="1" stop-color="#70869B"/></linearGradient><path class="st0" d="M255.8 0H516v284.7H255.8z"/><g><defs><path id="SVGID_4_" d="M168.3 95.7l108.9 59.2L255.8 0z"/></defs><clipPath id="SVGID_5_"><use xlink:href="#SVGID_4_" overflow="visible"/></clipPath><linearGradient id="SVGID_6_" gradientUnits="userSpaceOnUse" y1="401.546" x2="1" y2="401.546" gradientTransform="scale(126.63) rotate(-60 349.33 -201.7)"><stop offset="0" stop-color="#F9E743"/><stop offset=".143" stop-color="#F9E743"/><stop offset=".175" stop-color="#F8E541"/><stop offset=".816" stop-color="#EDB824"/><stop offset="1" stop-color="#EDB824"/></linearGradient><path class="st1" d="M101.2 116.2l94.3-163.3 148.7 85.8L250 202z"/></g><g><defs><path id="SVGID_7_" d="M75.3 197.4L516 284.7 278.1 155.4l-.8.4-.1-.9-108.9-59.2z"/></defs><clipPath id="SVGID_8_"><use xlink:href="#SVGID_7_" overflow="visible"/></clipPath><linearGradient id="SVGID_9_" gradientUnits="userSpaceOnUse" y1="401.181" x2="1" y2="401.181" gradientTransform="scale(144.8) rotate(120 -115.07 -199.4)"><stop offset="0" stop-color="#D7FF70"/><stop offset=".055" stop-color="#D1FF63"/><stop offset=".196" stop-color="#C5FF47"/><stop offset=".348" stop-color="#BCFF32"/><stop offset=".516" stop-color="#B5FF23"/><stop offset=".712" stop-color="#B1FF1A"/><stop offset="1" stop-color="#B0FF17"/></linearGradient><path class="st2" d="M597.8 143l-192 332.5-412.3-238 192-332.6z"/></g><g><defs><path id="SVGID_10_" d="M0 0h516.1v401.4H0z"/></defs><clipPath id="SVGID_11_"><use xlink:href="#SVGID_10_" overflow="visible"/></clipPath><path class="st3" d="M42.5 353.9c0-10.1-8.8-14.1-20.1-17.8-10.3-3.5-21-8.1-21-20.2 0-11.1 9.7-19.5 22.8-19.5 8.6 0 16 2.6 21.5 6.2l-1.9 4.4c-5.5-3.8-12.7-6.2-19.6-6.2-11.8 0-18 7.1-18 14.7 0 9.1 8.4 12.7 19.6 16.6 10.7 3.6 21.4 8.3 21.4 21.3 0 11.7-10 20.5-24.3 20.5-9.1 0-16.7-2.6-22.9-6.7l1.9-4.3c5.6 3.8 13 6.6 21.3 6.6 11.6 0 19.3-7.2 19.3-15.6M79.5 371l-5.1 14c-4.8 12.9-9.9 16.3-16.3 16.3-4.2 0-6.7-.8-9.5-2.2l1.4-4.4c2.5 1.3 4.9 2.2 8 2.2 4.2 0 7.9-2.4 12.1-13.6l4.1-11.1-21.5-54.5H58l18.7 48.2 18.4-48.2h5.2L79.5 371zM178.1 372.8v-36.5c0-9.7-4.1-15.1-13-15.1-5.6 0-11.7 3-17.1 7.9.4 1.6.6 4 .6 6.7v37h-4.9v-36.5c0-9.7-4.1-15.1-13-15.1-5.4 0-11.2 2.6-16.5 7.2v44.5h-4.9v-54.7l4.9-1.6v7.4c5.9-5.2 12.5-7.4 17.1-7.4 7.3 0 12.9 3 15.5 9.1 6.2-6.4 13.8-9.1 18.9-9.1 10.8 0 17.3 6.5 17.3 18.6v37.6h-4.9zM266.4 372.8v-36.5c0-9.7-4.1-15.1-13-15.1-5.6 0-11.7 3-17.1 7.9.4 1.6.6 4 .6 6.7v37H232v-36.5c0-9.7-4.1-15.1-13-15.1-5.4 0-11.2 2.6-16.5 7.2v44.5h-4.9v-54.7l4.9-1.6v7.4c5.9-5.2 12.5-7.4 17.1-7.4 7.3 0 12.9 3 15.5 9.1 6.2-6.4 13.8-9.1 18.9-9.1 10.8 0 17.3 6.5 17.3 18.6v37.6h-4.9zM288.1 345.2c0 13.9 7.7 24.1 20.3 24.1 6.2 0 11.4-2 15.4-4.6l1.1 4.4c-4.3 2.8-10.1 4.7-16.8 4.7-15 0-25-11.8-25-28.5s10.2-29 24.6-29c10.8 0 19.1 7.2 19.1 19 0 2.6-.6 6.2-1.2 8.7l-37.5.2v1zm33.2-5.2c.2-1.3.4-2.8.4-4.1 0-8.6-5.4-14.8-14.2-14.8-10.2 0-17.4 7.7-19.1 18.9h32.9zM376.7 291.8l4.9-1.6v82.5h-4.9v-5.4c-3.4 3.1-9.5 6.6-16.6 6.6-14.2 0-24.8-11.1-24.8-27.9 0-17.5 11.2-29 26.4-29 5.4 0 11.2 1.9 14.9 4.2v-29.4zm-15.3 29.8c-12.4 0-21 9.7-21 24.5 0 13.3 7.9 23.5 20.1 23.5 6.1 0 12.1-3.1 16.2-7.1v-36.4c-3.5-2.6-9.6-4.5-15.3-4.5M399 304.6c-2.2 0-3.5-1.9-3.5-3.8 0-1.8 1.3-3.6 3.5-3.6s3.6 1.8 3.6 3.6c.1 1.9-1.4 3.8-3.6 3.8m-2.4 68.2v-54.7l4.9-1.6v56.2h-4.9zM446.3 365.3c-3.4 4.3-10.1 8.6-17.2 8.6-9.7 0-17.2-5.9-17.2-14.5 0-10.2 8.4-17.8 33.9-19.5v-5c0-8.4-4.1-13.8-13.5-13.8-6.6 0-14.2 3.7-18.5 7.1l-1.2-4.9c5-3.6 13.5-6.7 20.1-6.7 10.5 0 18 5 18 17.9v29.8c0 3.4.8 5.9 5.8 5.8l-.4 3.7c-5.4.2-9.4-2.3-9.7-8.4h-.1zm-.5-21.7c-21.5 2.2-29 7.3-29 15.4 0 6.8 5.9 10.7 12.9 10.7 6.8 0 12.6-4.3 16.1-8.5v-17.6zM502.5 372.8v-36.5c0-9.7-4.1-15.1-13-15.1-6.2 0-13 3.5-19 9.5v42.2h-4.9v-54.7l4.9-1.6v9.6c6.4-6.5 14.3-9.6 19.6-9.6 10.8 0 17.3 6.5 17.3 18.6v37.6h-4.9zM516 284.8l.1-.2-12.2-13.3-212.3-115.4 75.3-34.5-8.5-9.3-76.2 34.9L262.9 7.6l-7-7.6h-.3l-5.1 5.6 19.1 138.3-97.2-52.8-8.4 9.1L264.7 155l-122.2 55.9 20.2 4 109.8-50.2 10.2 74 12.5 2.5-10.4-75.2 211.8 115 19.4 3.8zM277.4 155.6l-.1-.5.5.3-.4.2z"/></g></svg>