<svg id="Layer_1" xmlns="http://www.w3.org/2000/svg" xmlns:xlink="http://www.w3.org/1999/xlink" viewBox="0 0 309.1 137.3"><style>.st0{clip-path:url(#SVGID_2_);fill:#005BA7;} .st1{clip-path:url(#SVGID_2_);fill:#E01836;} .st2{clip-path:url(#SVGID_2_);fill:#211E1E;}</style><defs><path id="SVGID_1_" d="M0 0h309.1v137.3H0z"/></defs><clipPath id="SVGID_2_"><use xlink:href="#SVGID_1_" overflow="visible"/></clipPath><path class="st0" d="M4.3 45.1c-1.2-.1-2.2.3-3.3-.4-.1-.4-.3-.9-.2-1.3.1-.5.3-1 .6-1.3 4.3-4.3 7.9-9.2 12.7-13.2 5.4-4.4 10.7-8.7 16.6-12.3 9.9-6.1 20.5-10.5 31.8-13.5C75-.2 87.7-.5 100.3.3c10.7.8 20.9 3.7 30.8 7.6 7.5 3 14.5 6.7 21.2 11.1 8.6 5.7 16 12.8 23 20.3.4.4.4.9.2 1.6-17.9-5.8-35.5-5.8-52.7 3.2-15-19.4-34.7-30-59.4-29.9-24.6.1-44 11.2-59.1 30.9"/><path class="st1" d="M228.9 106c11.1 11.6 24.4 17.5 40.2 17.2 15.6-.3 28.3-7.3 39.5-19.2-.8 4.5-3.6 8.6-9.4 14.1-9.6 9.2-20.9 15.4-33.9 17.9-29.5 5.8-55.9-8.4-68.6-27.9 5.7.4 11.1 1.7 16.5.9 5.2-.8 10.5-2 15.7-3"/><path class="st2" d="M32.7 51.3h6.6c.1.1.3.2.3.4.1.1.2.3.2.4v43.7c-2.3.9-4.8.2-7.3.4-1.6-1.4-2.9-3-4.1-4.8-5.9-8.7-12.2-17.1-18-26-1.1-1.7-2.6-3.3-4.4-6-.3 4.9-.2 8.7-.2 12.6v24H0V51.4h7.7c8.4 10.9 16 23.2 25 35.2V51.3zM188.8 73.9c-.1 13.8-10.5 23.3-23.7 23.2-14.8-.1-24.2-9.6-24.2-23.6 0-13.2 9.7-23 24.1-23.2 13-.3 24.2 10 23.8 23.6m-6.9.8c-.1-6.1-1.4-11.1-5.4-14.2-7.8-6.1-15.1-5.9-23.2-.2-1.2.8-1.9 2.1-2.7 3.4-3.9 6.9-3.5 13.6.2 20.3.9 1.7 2.2 3.1 3.7 3.9 3.7 2 7.6 3.8 12 3.1 4.6-.7 9.1-2.2 11.8-6.1 2.2-3.2 4-7 3.6-10.2M47.8 73.6C47.6 59.9 58.2 50 71.1 50.3c16.1.4 23.8 9.4 24.5 23.7.3 6.2-2.1 12.2-6.8 16.6-4.8 4.4-10.6 6.7-17.2 6.6-13.3-.1-24.1-9.9-23.8-23.6m20.1 17.6c1.8 0 3.5.1 5.1 0 4.1-.4 8.2-1.6 10.9-4.7 3.2-3.7 5.2-8.1 5-13.3-.3-6.8-4.2-13.2-10.4-15.6-9.9-3.9-19.8.3-23.3 10.8-.8 2.3-.4 4.6-.4 6.9 0 6.3 2.9 10.8 8.4 13.8 1.4.6 2.9 1.2 4.7 2.1M262.7 90v5.6l-.4.4c-.1.1-.3.2-.4.2h-29.4l-.4-.4c-.1-.1-.2-.3-.2-.4V51.6c4.9-.7 9.9-.2 14.8-.3 4.8-.1 9.7 0 14.7 0 .8 1.9.4 3.8.4 6H238v12.9h21.6V76h-21.5v14h24.6zM288.2 77.2c-4.4 6.3-8.6 12.4-13.1 18.8h-7.6c2.7-4.4 5.7-8.1 8.3-12.1 2.6-3.9 5.9-7.3 8-11.8-5.2-6.6-10.1-13.4-15.1-20.7h7.9c4.3 4.8 7 11.2 12.3 16.2 3.9-5.6 7.6-10.8 11.5-16.3h7.6c-4.5 7.7-10.6 13.8-14.5 21.3 4.8 8 11 14.8 15.6 22.9-2.3 1.1-4.5.4-6.5.6-3.7-2.4-5.2-6.4-7.7-9.6-2.2-3-3.8-6.5-6.7-9.3M120.9 96.1h-5.7c-1.4-3.6-2.9-7.3-4.4-11-1.5-3.7-3.1-7.4-4.6-11.1-1.5-3.7-3-7.4-4.4-11.2-1.3-3.7-3.3-7.2-4.3-11.4h6.8c2.9 5.4 4.6 11.5 6.8 17.5s4.6 12 7.1 18.2c2.4-6 4.7-11.9 7-17.7 2.3-6 4.6-12 6.9-17.9h7.1c-2.8 7-5.5 13.7-8.2 20.3-3.4 8-6.7 16.1-10.1 24.3M202.7 90.2h20.6c1.1 1.8.2 3.6.7 5.3-3.6.8-20 1-26.9.3V51.4h5.7v38.8z"/></svg>