<svg id="Layer_1" xmlns="http://www.w3.org/2000/svg" xmlns:xlink="http://www.w3.org/1999/xlink" viewBox="0 0 84.2 57.1"><style>.st0{clip-path:url(#SVGID_2_);fill:#70869B;} .st1{clip-path:url(#SVGID_2_);fill:none;stroke:#70869B;stroke-width:4;stroke-miterlimit:10;} .st2{clip-path:url(#SVGID_2_);fill:none;stroke:#70869B;stroke-width:2;stroke-miterlimit:10;}</style><defs><path id="SVGID_1_" d="M0 0h84.2v57.1H0z"/></defs><clipPath id="SVGID_2_"><use xlink:href="#SVGID_1_" overflow="visible"/></clipPath><path class="st0" d="M40 5c0 2.7-2.2 5-5 5s-5-2.2-5-5c0-2.7 2.2-5 5-5s5 2.2 5 5M10 36.6c0 2.7-2.2 5-5 5s-5-2.2-5-5c0-2.7 2.2-5 5-5s5 2.3 5 5M43.5 30.7c0 2.7-2.2 5-5 5s-5-2.2-5-5c0-2.7 2.2-5 5-5s5 2.3 5 5M83.3 52.1c0 2.7-2.2 5-5 5s-5-2.2-5-5c0-2.7 2.2-5 5-5s5 2.3 5 5"/><path class="st1" d="M35 5l3.6 25.7M5 36.6l33.6-5.9M78.3 52.1L38.6 30.7"/><path class="st2" d="M38.6 30.7l39.7-12.8M38.6 31.6v15.5M78.3 52.1l5-18.4M33.6 3.8L10 7.7M5 36.6L2.1 17.9"/></svg>