<svg id="Layer_1" xmlns="http://www.w3.org/2000/svg" xmlns:xlink="http://www.w3.org/1999/xlink" viewBox="0 0 54 56.6"><style>.st0{clip-path:url(#SVGID_2_);fill:#70869B;} .st1{clip-path:url(#SVGID_2_);fill:none;stroke:#70869B;stroke-width:2;stroke-miterlimit:10;}</style><defs><path id="SVGID_1_" d="M0 0h54v56.6H0z"/></defs><clipPath id="SVGID_2_"><use xlink:href="#SVGID_1_" overflow="visible"/></clipPath><path class="st0" d="M50 52.6H4V14.1h46v38.5zm3.8-42.5H.2c-.1 0-.2.1-.2.2v46.2c0 .1.1.2.2.2h53.7c.1 0 .2-.1.2-.2V10.3c-.1-.1-.2-.2-.3-.2"/><path class="st0" d="M3.2 26.3h23.5v27.2H3.2z"/><path class="st1" d="M26.7 10.4S6.4 9.9 11.2 2.9s15.5 7.5 15.5 7.5zM27.3 10.4s20.3-.5 15.5-7.5-15.5 7.5-15.5 7.5zM26.7 10.4v43M0 26.7h51.6"/></svg>