<svg id="Layer_1" xmlns="http://www.w3.org/2000/svg" xmlns:xlink="http://www.w3.org/1999/xlink" viewBox="0 0 81.5 53.2"><style>.st0{clip-path:url(#SVGID_2_);fill:#70869B;}</style><defs><path id="SVGID_1_" d="M0 0h81.5v53.2H0z"/></defs><clipPath id="SVGID_2_"><use xlink:href="#SVGID_1_" overflow="visible"/></clipPath><path class="st0" d="M13.2 48.3c0 2.7-2.2 5-5 5s-5-2.2-5-5c0-2.7 2.2-5 5-5s5 2.2 5 5M38.7 48.3c0 2.7-2.2 5-5 5s-5-2.2-5-5c0-2.7 2.2-5 5-5s5 2.2 5 5M79.5 48.3c0 2.7-2.2 5-5 5s-5-2.2-5-5c0-2.7 2.2-5 5-5s5 2.2 5 5"/><path class="st0" d="M77.5 4v33.7c-1-.3-2-.4-3-.4-3.9 0-7.4 2-9.3 5.2H43c-2-3.2-5.5-5.2-9.3-5.2-1.1 0-2.2.2-3.2.5V4h47m4-4h-55v46.5h.5c.8-3 3.5-5.2 6.7-5.2s6 2.2 6.7 5.2h27.3c.8-3 3.5-5.2 6.7-5.2s6 2.2 6.7 5.2h.2V0zM18.5 26.5c.8 0 1.5.7 1.5 1.5v13c0 .8-.7 1.5-1.5 1.5h-.9c-2-3.2-5.5-5.2-9.3-5.2-1.5 0-2.9.3-4.2.8V28c0-.8.7-1.5 1.5-1.5h12.9m0-4h-13C2.5 22.5 0 25 0 28v13c0 1.7.8 3.2 2 4.2 1.1-2.3 3.5-3.9 6.3-3.9 3.2 0 6 2.2 6.7 5.2h3.5c3 0 5.5-2.5 5.5-5.5V28c0-3-2.5-5.5-5.5-5.5"/></svg>